<svg class="css-ze2te4 css-qd6ojx" viewBox="0 0 76.08695652173914 68.39395045131184"><g transform="translate(-1.4753703853026798, -5.585331040481029) scale(0.5269180037243172)" class="css-1oj3hkq" fill="#64ee85"><g xmlns="http://www.w3.org/2000/svg"><path d="M42.6,66.4l31.7-21.2l33.4,21.5c4,0,8-1.2,11.4-3.3l28-18L71.4,10.6L2.8,49.4l31.5,15.1C36.9,65.7,39.8,66.3,42.6,66.4z"></path><polygon points="82.7,128.4 14.6,95.8 2.8,102.5 82.1,140.4 147.2,98.5 136.6,93.7  "></polygon><polygon points="82.7,109.7 14.6,77.2 2.8,83.8 82.1,121.7 147.2,79.9 136.6,75  "></polygon><polygon points="108,69.7 108,69.7 108,69.7  "></polygon><path d="M122.5,68.3c-4.3,2.8-9.4,4.3-14.5,4.3h-0.1l-64.5-0.3c-3.9,0-7.9-0.9-11.5-2.6l-20.1-9.6l-9,5.1L82.1,103l65.1-41.8   l-7.9-3.6L122.5,68.3z"></path></g></g></svg>